# xmcd
#
# Track frame offsets: 
#        150
#        992
#        15409
#        38895
#        58815
#        75817
#        91857
#        111412
#        130962
#        148295
#        161145
#        183840
#        209430
#        233040
#
# Disc length: 3440 seconds
#
# Revision: 1
# Processed by: cddbd v1.5.2PL0 Copyright (c) Steve Scherf et al.
# Submitted via: ExactAudioCopy v1.3
#
DISCID=af0d6e0e
DTITLE=Various Artist - Blues Revue sampler Aug-Sep 2004
DYEAR=2004
DGENRE=Blues
TTITLE0=Pat Boyack - Intro
TTITLE1=Pat Boyack - Listen to me
TTITLE2=James Solberg - Real time
TTITLE3=Watermelon Slim - Too old is getting younger all the time
TTITLE4=Burton Gaar - Mississippi water
TTITLE5=Kay Kay and The Rays - Southside of the tracks
TTITLE6=Colin John Band - 11 months and 29 days
TTITLE7=Hound Dog Taylor - She's gone
TTITLE8=Tim Gonzales - Straight from the heart
TTITLE9=Tony Vega Band - Hard to love
TTITLE10=Roy Tyler - New direction
TTITLE11=Jeff Chaz - Instrument of pleasure
TTITLE12=Sweet Daddy Cool Breeze - Come love me shoes
TTITLE13=Deborah Coleman - The river wild
EXTD=
EXTT0=
EXTT1=
EXTT2=
EXTT3=
EXTT4=
EXTT5=
EXTT6=
EXTT7=
EXTT8=
EXTT9=
EXTT10=
EXTT11=
EXTT12=
EXTT13=
PLAYORDER=
